# xmcd
#
# Track frame offsets:
#	150
#	11193
#	20406
#	29270
#	41678
#	53590
#	64213
#	75489
#	85102
#	98172
#	106409
#	120167
#	131069
#	142363
#	152080
#	161841
#	173849
#	182626
#	190689
#	204186
#
# Disc length: 2824 seconds
#
# Revision: 0
# Processed by: cddbd v1.5.2PL0 Copyright (c) Steve Scherf et al.
# Submitted via: audiograbber 1.83.01
#
DISCID=050b0614
DTITLE=Paul Anka - Orchestra Conducted By Don Costa
DYEAR=1900
DGENRE=
TTITLE0=Crazy Love
TTITLE1=Sing Sing Sing
TTITLE2=Let The Bells Keep Ringing
TTITLE3=You Are My Destiny
TTITLE4=Jambalaya
TTITLE5=Down By The Riverside
TTITLE6=Just Young
TTITLE7=Your Cheatin' Heart
TTITLE8=You Belong To Me
TTITLE9=Walking My Baby Back Home
TTITLE10=So It's Goodbye
TTITLE11=Diana
TTITLE12=Don't Gamble With Love
TTITLE13=Tell Me That You Love Me
TTITLE14=I Love You, Baby
TTITLE15=Red Sails In The Sunset
TTITLE16=Pity, Pity
TTITLE17=When I Stop Loving You (That'll Be The Day)
TTITLE18=Waiting For You
TTITLE19=The Teen Commandments
EXTD=
EXTT0=
EXTT1=
EXTT2=
EXTT3=
EXTT4=
EXTT5=
EXTT6=
EXTT7=
EXTT8=
EXTT9=
EXTT10=
EXTT11=
EXTT12=
EXTT13=
EXTT14=
EXTT15=
EXTT16=
EXTT17=
EXTT18=
EXTT19=
PLAYORDER=
